<svg width="968" height="926" viewBox="0 0 968 926" fill="none" xmlns="http://www.w3.org/2000/svg" xmlns:xlink="http://www.w3.org/1999/xlink">
<path d="M260.113,788C74.708,788 104.849,112.767 286.689,17.001C468.529,-78.765 904.945,253.982 914.735,417.922C920.961,522.17 705.815,788 260.113,788Z" fill="#F8CBE6"/>
<path d="M262.395,747.577L263.421,745.861L262.395,747.577ZM692.465,350.585L690.903,351.833L692.465,350.585ZM250.701,853.073L250.789,855.071L250.701,853.073ZM649.395,230.171L648.107,231.701L648.107,231.701L649.395,230.171ZM574.173,830.555L573.115,828.859L573.115,828.859L574.173,830.555ZM167.695,872.745L166.355,874.231L166.355,874.231L167.695,872.745ZM11.017,290.373L9.029,290.151L11.017,290.373ZM908.357,357.953L909.795,356.563L909.795,356.563L908.357,357.953ZM614.653,515.689C628.817,532.391 635.941,549.611 637.425,566.799C638.911,584.001 634.759,601.323 626.121,618.235C608.819,652.107 573.621,684.105 530.547,709.557C487.507,734.987 436.813,753.753 388.777,761.291C340.691,768.837 295.567,765.087 263.421,745.861L261.367,749.293C294.663,769.205 340.881,772.855 389.399,765.243C437.967,757.621 489.137,738.669 532.581,712.999C575.993,687.351 611.899,654.867 629.683,620.053C638.587,602.621 642.973,584.551 641.411,566.455C639.847,548.343 632.337,530.359 617.703,513.103L614.653,515.689ZM263.421,745.861C208.233,712.857 181.509,640.063 179.259,556.679C177.012,473.397 199.224,380.179 241.159,307.171C283.109,234.137 344.553,181.7 420.661,179.07C496.805,176.439 588.461,223.625 690.903,351.833L694.027,349.337C591.273,220.737 498.537,172.377 420.523,175.073C342.473,177.769 279.995,231.529 237.691,305.179C195.371,378.855 172.995,472.805 175.261,556.787C177.524,640.665 204.411,715.231 261.367,749.293L263.421,745.861ZM690.903,351.833C740.353,413.721 747.757,533.259 683.933,640.113C620.211,746.797 485.407,840.809 250.615,851.075L250.789,855.071C486.641,844.759 622.819,750.229 687.367,642.163C751.813,534.267 744.777,412.849 694.027,349.337L690.903,351.833ZM250.615,851.075C217.577,852.521 190.908,846.861 169.526,835.735C148.153,824.613 131.941,807.967 119.906,787.241C95.791,745.715 88.477,687.865 90.233,625.723C93.744,501.443 133.427,361.487 145.195,303.937L141.276,303.135C129.602,360.227 89.759,500.867 86.235,625.609C84.472,687.977 91.763,746.745 116.447,789.251C128.812,810.543 145.548,827.767 167.68,839.283C189.804,850.795 217.197,856.541 250.789,855.071L250.615,851.075ZM145.195,303.937C156.858,246.903 197.151,156.955 276.961,117.176C356.513,77.528 476.321,87.288 648.107,231.701L650.681,228.639C478.369,83.784 356.821,72.905 275.177,113.596C193.795,154.158 153.057,245.527 141.276,303.135L145.195,303.937ZM648.107,231.701C759.613,325.441 815.101,406.653 834.701,476.337C854.269,545.913 838.127,604.239 805.777,652.489C773.381,700.809 724.721,739.015 679.345,768.105C656.671,782.641 634.851,794.881 616.335,804.955C597.871,815.003 582.571,822.963 573.115,828.859L575.231,832.253C584.555,826.441 599.647,818.591 618.247,808.469C636.797,798.375 658.713,786.085 681.505,771.473C727.061,742.267 776.253,703.705 809.101,654.715C841.995,605.655 858.487,546.131 838.551,475.253C818.645,404.481 762.489,322.633 650.681,228.639L648.107,231.701ZM573.115,828.859C515.653,864.677 442.339,900.419 369.479,914.595C296.627,928.769 224.533,921.337 169.035,871.261L166.355,874.231C223.137,925.467 296.709,932.827 370.243,918.521C443.765,904.217 517.551,868.209 575.231,832.253L573.115,828.859ZM169.035,871.261C12.053,729.611 -11.83,512.163 13.004,290.597L9.029,290.151C-15.842,512.047 7.877,731.231 166.355,874.231L169.035,871.261ZM13.004,290.597C26.788,167.623 112.52,42.467 263.261,18.969C414.111,-4.545 630.897,73.596 906.917,359.341L909.795,356.563C633.471,70.504 415.449,-8.802 262.645,15.017C109.732,38.853 22.966,165.81 9.029,290.151L13.004,290.597ZM906.917,359.341C938.139,391.663 955.107,425.405 960.871,459.143C966.639,492.889 961.221,526.775 947.437,559.413C919.845,624.741 858.779,684.903 787.417,728.299L789.497,731.717C861.285,688.061 923.091,627.335 951.121,560.969C965.149,527.759 970.731,493.095 964.815,458.469C958.895,423.835 941.497,389.381 909.795,356.563L906.917,359.341Z" transform="rotate(257.252 483.867 468.001)" fill="#D8A8A8"/>
<g filter="url(#filter43_741)">
<rect  x="272.092" y="195.26" width="375.45" height="503.103" rx="21.82" transform="rotate(-22.233 272.092 195.26)" fill="#E5A75E"/>
</g>
<rect  x="299.987" y="220.39" width="330.396" height="443.031" transform="rotate(-22.233 299.987 220.39)" fill="#F1F0E2"/>
<g filter="url(#filter43_743)">
<path d="M339.577,184.087L669.973,184.087C669.973,184.087 652.451,503.219 698.757,570.801C636.183,642.135 415.918,622.111 347.086,622.111C352.092,519.489 339.577,184.087 339.577,184.087Z" transform="rotate(-22.233 519.167 404.393)" fill="#FFFFFF"/>
</g>
<path d="M343.306,280.057L513.51,280.057L513.51,273.511L343.306,273.511L343.306,280.057Z" transform="rotate(-22.233 428.408 276.784)" fill="#606060"/>
<g filter="url(#filter43_746)">
<path d="M340.531,207.808L593.333,207.808L593.333,205.626L340.531,205.626L340.531,207.808Z" transform="rotate(-22.233 466.932 206.717)" fill="#000000" fill-opacity="0.3"/>
</g>
<path d="M350.062,314.442L520.266,314.442L520.266,307.896L350.062,307.896L350.062,314.442Z" transform="rotate(-22.233 435.164 311.169)" fill="#606060"/>
<rect  x="552.785" y="245.372" width="50.06" height="50.06" transform="rotate(-22.233 552.785 245.372)" stroke="#606060" stroke-width="3.273" stroke-miterlimit="3.999327" stroke-linejoin="round"/>
<path d="M573.216,263.694C572.233,262.396 570.384,262.142 569.087,263.125C567.789,264.108 567.534,265.957 568.518,267.254L573.216,263.694ZM577.328,274L574.979,275.78C575.498,276.465 576.289,276.889 577.146,276.942C578.003,276.995 578.84,276.672 579.439,276.057L577.328,274ZM596.978,258.057C598.114,256.891 598.089,255.025 596.923,253.889C595.758,252.753 593.892,252.778 592.756,253.943L596.978,258.057ZM568.518,267.254L574.979,275.78L579.677,272.22L573.216,263.694L568.518,267.254ZM579.439,276.057L596.978,258.057L592.756,253.943L575.217,271.943L579.439,276.057Z" fill="#606060"/>
<path d="M361.645,373.386L531.849,373.386L531.849,366.84L361.645,366.84L361.645,373.386Z" transform="rotate(-22.233 446.747 370.113)" fill="#606060"/>
<path d="M368.884,410.226L539.088,410.226L539.088,403.68L368.884,403.68L368.884,410.226Z" transform="rotate(-22.233 453.986 406.953)" fill="#606060"/>
<rect  x="571.611" y="341.158" width="50.06" height="50.06" transform="rotate(-22.233 571.611 341.158)" stroke="#606060" stroke-width="3.273" stroke-miterlimit="3.999327" stroke-linejoin="round"/>
<path d="M412.594,134.541C411.517,142.297 405.302,149.206 397.472,149.206L337.02,149.206C327.379,149.206 319.564,157.022 319.564,166.662L319.564,200.229C319.564,203.844 322.495,206.775 326.11,206.775L583.342,206.775C586.958,206.775 589.888,203.844 589.888,200.229L589.888,166.662C589.888,157.022 582.072,149.206 572.432,149.206L519.488,149.206C511.659,149.206 505.443,142.297 504.366,134.541C502.153,118.607 493.004,95.392 458.48,95.392C423.957,95.392 414.808,118.607 412.594,134.541ZM455.977,136.692C462.197,136.692 467.24,131.649 467.24,125.428C467.24,119.208 462.197,114.165 455.977,114.165C449.756,114.165 444.713,119.208 444.713,125.428C444.713,131.649 449.756,136.692 455.977,136.692Z" clip-rule="evenodd" fill-rule="evenodd" transform="rotate(-22.233 454.726 151.084)" fill="url(#pf_0_43_754)"/>
<g filter="url(#filter43_757)">
<rect  x="333.734" y="184.424" width="245.294" height="12.515" rx="21.82" transform="rotate(-22.233 333.734 184.424)" fill="#FFFFFF" fill-opacity="0.2"/>
</g>
<g filter="url(#filter43_758)">
<path d="M553.624,675.481C552.254,675.481 549.193,688.526 549.193,688.526L554.832,694.978L558.055,688.526C558.055,688.526 555.463,675.482 553.624,675.481Z" transform="rotate(-299.715 553.624 685.23)" fill="#505050"/>
<path d="M560.762,644.92L550.128,680.37L558.104,685.687L572.283,685.687L580.259,680.37C577.896,671.212 572.461,651.301 569.625,644.92C566.08,646.338 562.239,645.511 560.762,644.92Z" transform="rotate(-299.715 565.194 665.304)" fill="#FFDABF"/>
<path d="M632.457,374.634L641.319,376.407L653.726,376.407L662.589,374.634L662.589,672.406L632.457,672.406L632.457,374.634Z" transform="rotate(-299.715 647.523 523.521)" fill="#F476A3"/>
<path d="M633.895,371.067L642.757,369.294L642.757,667.066L633.895,667.066L633.895,371.067Z" transform="rotate(-299.715 638.326 518.181)" fill="#FFA8C7"/>
<path d="M652.288,379.975L661.151,381.747L661.151,677.747L652.288,677.747L652.288,379.975Z" transform="rotate(-299.715 656.719 528.861)" fill="#D2638B"/>
<rect  x="729.974" y="411.529" width="30.132" height="35.449" rx="3.09" transform="rotate(-299.715 729.974 411.529)" fill="#FDC56D"/>
<rect  x="731.508" y="412.419" width="33.677" height="17.725" rx="3.09" transform="rotate(-299.715 731.508 412.419)" fill="#CECECE"/>
<rect  x="733.288" y="409.354" width="33.677" height="3.545" rx="13.906" transform="rotate(-299.715 733.288 409.354)" fill="#EAEAEA"/>
<rect  x="736.848" y="403.222" width="33.677" height="3.545" rx="13.906" transform="rotate(-299.715 736.848 403.222)" fill="#EAEAEA"/>
</g>
<defs>
<filter id="filter43_741" x="271.000794" y="121.780976" width="234.88471" height="286.298647" filterUnits="userSpaceOnUse" color-interpolation-filters="sRGB">
<feFlood flood-opacity="0" result="BackgroundImageFix"/>
<feColorMatrix in="SourceAlpha" type="matrix" values="0 0 0 0 0 0 0 0 0 0 0 0 0 0 0 0 0 0 127 0" result="hardAlpha"/>
<feMorphology radius="0" operator="dilate" in="SourceAlpha" result="0dropshadow"/>
<feOffset dx="0" dy="2.182006"/>
<feGaussianBlur stdDeviation="0.545502"/>
<feComposite in2="hardAlpha" operator="out"/>
<feColorMatrix type="matrix" values="0 0 0 0 0 0 0 0 0 0 0 0 0 0 0 0 0 0 0.25 0"/>
<feBlend mode="normal" in2="BackgroundImageFix" result="0dropshadow"/>
<feBlend mode="normal" in="SourceGraphic" in2="0dropshadow" result="shape"/>
</filter>
<filter id="filter43_743" x="295.015199" y="148.139659" width="229.60653" height="261.708832" filterUnits="userSpaceOnUse" color-interpolation-filters="sRGB">
<feFlood flood-opacity="0" result="BackgroundImageFix"/>
<feColorMatrix in="SourceAlpha" type="matrix" values="0 0 0 0 0 0 0 0 0 0 0 0 0 0 0 0 0 0 127 0" result="hardAlpha"/>
<feMorphology radius="0" operator="dilate" in="SourceAlpha" result="0dropshadow"/>
<feOffset dx="0" dy="1.091003"/>
<feGaussianBlur stdDeviation="2.727508"/>
<feComposite in2="hardAlpha" operator="out"/>
<feColorMatrix type="matrix" values="0 0 0 0 0 0 0 0 0 0 0 0 0 0 0 0 0 0 0.05 0"/>
<feBlend mode="normal" in2="BackgroundImageFix" result="0dropshadow"/>
<feBlend mode="normal" in="SourceGraphic" in2="0dropshadow" result="shape"/>
</filter>
<filter id="filter43_746" x="341.811341" y="181.255295" width="126.211809" height="26.55265" filterUnits="userSpaceOnUse" color-interpolation-filters="sRGB">
<feFlood flood-opacity="0" result="BackgroundImageFix"/>
<feBlend mode="normal" in="SourceGraphic" in2="BackgroundImageFix" result="shape"/>
<feGaussianBlur stdDeviation="0.545502" result="0foregroundblur"/>
</filter>
<linearGradient id="pf_0_43_754" x1="448.332" y1="118.541" x2="465.463" y2="205.73" gradientUnits="userSpaceOnUse">
<stop stop-color="#777575"/>
<stop offset="1" stop-color="#2E2E2E"/>
</linearGradient>
<filter id="filter43_757" x="323.914859" y="127.311613" width="141.190277" height="49.424922" filterUnits="userSpaceOnUse" color-interpolation-filters="sRGB">
<feFlood flood-opacity="0" result="BackgroundImageFix"/>
<feBlend mode="normal" in="SourceGraphic" in2="BackgroundImageFix" result="shape"/>
<feGaussianBlur stdDeviation="4.909514" result="0foregroundblur"/>
</filter>
<filter id="filter43_758" x="529.167458" y="359.852442" width="117.570712" height="178.631671" filterUnits="userSpaceOnUse" color-interpolation-filters="sRGB">
<feFlood flood-opacity="0" result="BackgroundImageFix"/>
<feColorMatrix in="SourceAlpha" type="matrix" values="0 0 0 0 0 0 0 0 0 0 0 0 0 0 0 0 0 0 127 0" result="hardAlpha"/>
<feMorphology radius="0" operator="dilate" in="SourceAlpha" result="0dropshadow"/>
<feOffset dx="3" dy="5"/>
<feGaussianBlur stdDeviation="2.5"/>
<feComposite in2="hardAlpha" operator="out"/>
<feColorMatrix type="matrix" values="0 0 0 0 0 0 0 0 0 0 0 0 0 0 0 0 0 0 0.15 0"/>
<feBlend mode="normal" in2="BackgroundImageFix" result="0dropshadow"/>
<feBlend mode="normal" in="SourceGraphic" in2="0dropshadow" result="shape"/>
</filter>
</defs>
</svg>
