<svg width="168" height="180" viewBox="0 0 168 180" fill="none" xmlns="http://www.w3.org/2000/svg" xmlns:xlink="http://www.w3.org/1999/xlink">
<path d="M104.626,135.573C100.449,128.904 100.906,116.28 100.906,116.28C100.906,116.28 113.743,88.197 108.401,73.795C101.616,55.499 88.324,42.853 65.767,48.67C45.692,53.847 40.055,76.835 45.17,91.935C51.324,110.101 60.845,113.266 74.512,123.739C78.113,131.635 79.917,135.662 79.917,142.969C79.917,149.626 109.259,142.969 104.626,135.573Z" transform="rotate(-324.253 76.547 96.474)" fill="#FFFFFF" stroke="#111111" stroke-width="1.091" stroke-miterlimit="3.999327" stroke-linecap="round"/>
<path d="M93.503,129.325C94.226,130.289 95.594,130.484 96.558,129.761C97.522,129.038 97.717,127.67 96.994,126.706L93.503,129.325ZM71.381,72.562L71.985,74.659L71.985,74.659L71.381,72.562ZM63.517,90.434L62.033,88.834L63.517,90.434ZM86.259,133.477C86.907,134.493 88.255,134.792 89.272,134.145C90.288,133.498 90.588,132.149 89.94,131.133L86.259,133.477ZM96.994,126.706C90.625,118.214 82.232,105.186 76.693,93.971C73.909,88.335 71.928,83.317 71.222,79.622C70.865,77.755 70.882,76.459 71.106,75.658C71.29,75.002 71.561,74.781 71.985,74.659L70.776,70.466C68.699,71.064 67.436,72.581 66.904,74.481C66.412,76.236 66.529,78.314 66.935,80.441C67.755,84.733 69.954,90.181 72.78,95.903C78.46,107.404 87.005,120.661 93.503,129.325L96.994,126.706ZM71.985,74.659C72.476,74.517 72.361,74.677 72.018,74.503C71.556,74.268 71.5,73.869 71.51,73.939C71.526,74.053 71.526,74.396 71.364,75.033C71.21,75.64 70.942,76.387 70.553,77.248C68.978,80.738 65.757,85.381 62.033,88.834L65,92.034C69.14,88.196 72.71,83.079 74.531,79.043C74.991,78.023 75.36,77.029 75.594,76.107C75.82,75.216 75.96,74.244 75.831,73.329C75.696,72.37 75.21,71.229 73.996,70.613C72.902,70.056 71.714,70.195 70.776,70.466L71.985,74.659ZM62.033,88.834C59.65,91.043 54.214,93.912 49.588,95.347C47.22,96.082 45.494,96.299 44.628,96.143C44.238,96.072 44.433,96.003 44.607,96.299C44.774,96.585 44.589,96.647 44.778,96.059L40.622,94.726C40.247,95.896 40.121,97.279 40.844,98.51C41.573,99.751 42.821,100.251 43.854,100.438C45.834,100.795 48.439,100.273 50.881,99.515C55.875,97.966 61.975,94.839 65,92.034L62.033,88.834ZM44.778,96.059C44.867,95.781 44.997,95.645 45.245,95.539C45.573,95.399 46.214,95.286 47.291,95.455C49.455,95.794 52.665,97.161 56.692,99.955C64.686,105.503 75.286,116.247 86.259,133.477L89.94,131.133C78.753,113.568 67.781,102.338 59.18,96.37C54.909,93.407 51.064,91.629 47.967,91.144C46.413,90.9 44.872,90.954 43.534,91.525C42.117,92.129 41.097,93.245 40.622,94.726L44.778,96.059Z" transform="rotate(351.201 68.875 102.358)" fill="#FF9900"/>
<path d="M28.958,143.965C27.835,143.528 26.57,144.085 26.134,145.208C25.697,146.331 26.254,147.596 27.377,148.032L28.958,143.965ZM55.949,141.23C56.885,140.471 57.028,139.097 56.268,138.161C55.509,137.225 54.135,137.082 53.199,137.842L55.949,141.23ZM28.168,145.998C27.377,148.032 27.378,148.033 27.38,148.033C27.38,148.033 27.381,148.034 27.382,148.034C27.384,148.035 27.386,148.036 27.389,148.037C27.393,148.038 27.399,148.04 27.405,148.043C27.417,148.047 27.433,148.053 27.451,148.06C27.488,148.074 27.537,148.091 27.598,148.112C27.72,148.155 27.89,148.21 28.104,148.275C28.532,148.403 29.14,148.565 29.905,148.719C31.436,149.025 33.606,149.298 36.235,149.188C41.522,148.969 48.585,147.206 55.949,141.23L53.199,137.842C46.627,143.175 40.486,144.644 36.054,144.828C33.824,144.921 32.005,144.688 30.762,144.439C30.141,144.315 29.666,144.187 29.358,144.095C29.203,144.048 29.091,144.011 29.024,143.988C28.99,143.976 28.967,143.968 28.956,143.964C28.951,143.962 28.948,143.961 28.948,143.961C28.949,143.961 28.949,143.961 28.951,143.962C28.952,143.962 28.953,143.963 28.954,143.963C28.955,143.963 28.956,143.964 28.956,143.964C28.957,143.964 28.958,143.965 28.168,145.998Z" transform="rotate(-324.253 41.371 143.283)" fill="#000000"/>
<path d="M34.264,135.623C33.127,135.222 31.881,135.818 31.48,136.955C31.079,138.091 31.675,139.337 32.811,139.738L34.264,135.623ZM61.326,133.55C62.296,132.835 62.503,131.469 61.788,130.499C61.073,129.529 59.707,129.322 58.737,130.037L61.326,133.55ZM33.538,137.681C32.811,139.738 32.813,139.739 32.814,139.739C32.814,139.739 32.815,139.74 32.816,139.74C32.818,139.741 32.82,139.741 32.822,139.742C32.827,139.744 32.832,139.746 32.838,139.748C32.85,139.752 32.865,139.757 32.883,139.763C32.92,139.775 32.968,139.791 33.028,139.81C33.149,139.848 33.317,139.898 33.529,139.956C33.954,140.071 34.559,140.218 35.321,140.357C36.844,140.633 39.004,140.88 41.623,140.781C46.88,140.583 53.939,138.993 61.326,133.55L58.737,130.037C52.141,134.897 45.953,136.251 41.459,136.42C39.202,136.505 37.361,136.292 36.101,136.063C35.472,135.948 34.99,135.831 34.676,135.745C34.519,135.702 34.404,135.668 34.335,135.646C34.3,135.635 34.276,135.627 34.265,135.623C34.259,135.621 34.255,135.62 34.255,135.62C34.255,135.62 34.256,135.62 34.257,135.621C34.258,135.621 34.259,135.621 34.26,135.622C34.261,135.622 34.262,135.622 34.262,135.622C34.263,135.623 34.264,135.623 33.538,137.681Z" transform="rotate(-324.253 46.785 135.207)" fill="#000000"/>
<path d="M25.737,152.046C24.546,151.865 23.433,152.683 23.251,153.874C23.07,155.066 23.888,156.179 25.079,156.36L25.737,152.046ZM47.984,150.763C48.969,150.069 49.206,148.708 48.512,147.723C47.819,146.737 46.458,146.501 45.472,147.194L47.984,150.763ZM25.408,154.203C25.079,156.36 25.08,156.361 25.081,156.361C25.081,156.361 25.082,156.361 25.083,156.361C25.084,156.361 25.086,156.361 25.088,156.362C25.091,156.362 25.095,156.363 25.1,156.363C25.11,156.365 25.122,156.367 25.137,156.369C25.168,156.373 25.209,156.379 25.261,156.385C25.365,156.399 25.511,156.416 25.696,156.435C26.066,156.473 26.593,156.517 27.251,156.546C28.565,156.605 30.414,156.604 32.587,156.373C36.921,155.912 42.641,154.523 47.984,150.763L45.472,147.194C40.916,150.401 35.976,151.624 32.125,152.034C30.206,152.238 28.581,152.237 27.444,152.187C26.877,152.162 26.434,152.124 26.141,152.094C25.994,152.079 25.885,152.066 25.817,152.057C25.783,152.053 25.759,152.049 25.745,152.047C25.739,152.046 25.735,152.046 25.733,152.046C25.733,152.046 25.733,152.046 25.733,152.046C25.734,152.046 25.734,152.046 25.735,152.046C25.735,152.046 25.736,152.046 25.736,152.046C25.737,152.046 25.737,152.046 25.408,154.203Z" transform="rotate(-324.253 36.068 151.688)" fill="#000000"/>
<path d="M123.114,124.049C124.021,122.381 123.404,120.294 121.737,119.387C120.069,118.48 117.982,119.096 117.075,120.764L123.114,124.049ZM100.217,151.759C99.31,153.427 99.926,155.514 101.594,156.421C103.261,157.328 105.348,156.711 106.255,155.044L100.217,151.759ZM117.075,120.764L100.217,151.759L106.255,155.044L123.114,124.049L117.075,120.764Z" transform="rotate(346.721 111.665 137.904)" fill="#FFB800"/>
<path d="M136.446,108.594C137.964,107.455 138.272,105.301 137.133,103.782C135.994,102.264 133.84,101.956 132.321,103.095L136.446,108.594ZM115.165,115.962C113.646,117.101 113.338,119.256 114.477,120.774C115.616,122.293 117.771,122.601 119.289,121.462L115.165,115.962ZM132.321,103.095L115.165,115.962L119.289,121.462L136.446,108.594L132.321,103.095Z" transform="rotate(346.721 125.805 112.278)" fill="#FFB800"/>
<path d="M157.859,87.307C159.729,86.982 160.982,85.202 160.656,83.332C160.331,81.462 158.551,80.209 156.681,80.534L157.859,87.307ZM123.798,86.253C121.928,86.579 120.675,88.358 121,90.229C121.326,92.099 123.105,93.351 124.976,93.026L123.798,86.253ZM156.681,80.534L123.798,86.253L124.976,93.026L157.859,87.307L156.681,80.534Z" transform="rotate(346.721 140.828 86.78)" fill="#FFB800"/>
<path d="M68.448,11.242C68.891,9.396 67.754,7.541 65.909,7.097C64.063,6.654 62.207,7.791 61.764,9.637L68.448,11.242ZM54.111,41.498C53.668,43.344 54.805,45.199 56.651,45.643C58.496,46.086 60.352,44.949 60.795,43.103L54.111,41.498ZM61.764,9.637L54.111,41.498L60.795,43.103L68.448,11.242L61.764,9.637Z" transform="rotate(346.721 61.28 26.37)" fill="#FFB800"/>
<path d="M37.704,61.505C39.365,60.587 39.967,58.496 39.049,56.835C38.131,55.173 36.04,54.571 34.378,55.489L37.704,61.505ZM3.442,72.589C1.781,73.507 1.179,75.599 2.097,77.26C3.015,78.921 5.106,79.524 6.768,78.605L3.442,72.589ZM34.378,55.489L3.442,72.589L6.768,78.605L37.704,61.505L34.378,55.489Z" transform="rotate(346.721 20.573 67.047)" fill="#FFB800"/>
<path d="M145.961,56.329C147.795,55.84 148.885,53.957 148.396,52.123C147.907,50.289 146.024,49.198 144.19,49.687L145.961,56.329ZM122.744,55.406C120.91,55.895 119.819,57.779 120.309,59.613C120.798,61.447 122.681,62.537 124.515,62.048L122.744,55.406ZM144.19,49.687L122.744,55.406L124.515,62.048L145.961,56.329L144.19,49.687Z" transform="rotate(346.721 134.352 55.868)" fill="#FFB800"/>
<path d="M94.634,15.819C95.007,13.958 93.799,12.147 91.938,11.775C90.076,11.403 88.266,12.61 87.893,14.471L94.634,15.819ZM83.604,35.917C83.232,37.778 84.439,39.589 86.301,39.961C88.162,40.334 89.973,39.127 90.345,37.265L83.604,35.917ZM87.893,14.471L83.604,35.917L90.345,37.265L94.634,15.819L87.893,14.471Z" transform="rotate(346.721 89.119 25.868)" fill="#FFB800"/>
<path d="M51.431,39.773C52.703,38.364 52.592,36.19 51.183,34.918C49.774,33.646 47.6,33.757 46.328,35.166L51.431,39.773ZM30.393,52.816C29.121,54.224 29.231,56.398 30.64,57.67C32.049,58.942 34.223,58.831 35.495,57.422L30.393,52.816ZM46.328,35.166C43.217,38.612 40.789,41.302 38.36,43.991C35.932,46.68 33.504,49.369 30.393,52.816L35.495,57.422C38.607,53.976 41.035,51.287 43.463,48.598C45.891,45.908 48.319,43.219 51.431,39.773L46.328,35.166Z" transform="rotate(-13.279 40.912 46.294)" fill="#FFB800"/>
<path d="M134.351,19.776C135.693,18.433 135.693,16.257 134.351,14.915C133.009,13.573 130.832,13.573 129.49,14.915L134.351,19.776ZM105.185,39.22C103.843,40.562 103.843,42.738 105.185,44.081C106.527,45.423 108.704,45.423 110.046,44.081L105.185,39.22ZM129.49,14.915L105.185,39.22L110.046,44.081L134.351,19.776L129.49,14.915Z" transform="rotate(346.721 119.768 29.498)" fill="#FFB800"/>
</svg>
